<svg xmlns="http://www.w3.org/2000/svg" width="600" height="200" preserveAspectRatio="xMinYMin meet" viewBox="0 0 600 200">
  <path fill="#FFDE17" d="M575.51396 105.637c-.17 0-.342-.041-.498-.116-.35-.172-35.392-17.181-69.708-23.861-37.238-7.25-73.149-8.18-100.275-8.18-9.884 0-19.507.132-28.813.259-5.382.074-10.662.146-15.831.19-6.068.053-12.321.079-18.584.079-40.082 0-114.561-1.156-163.037-8.901-46.669-7.456-89.523-9.711-89.951-9.732-.549-.029-.998-.445-1.067-.989-.069-.545.261-1.061.785-1.225.766-.241 77.037-24.213 107.272-28.695 20.696-3.067 40.922-4.688 58.491-4.688 18.42 0 32.353 1.77 40.291 5.117 14.168 5.975 34.261 15.307 49.524 25.829.469.325.624.95.361 1.456-.195.377-.58.611-1.006.611-.135 0-.268-.024-.394-.071-.251-.093-25.952-9.582-42.592-15.595-13.251-4.789-25.402-6.925-39.398-6.925-8.715 0-17.442.773-27.547 1.668-1.813.161-3.649.324-5.525.485-23.26 2.004-54.729 10.283-63.098 12.566 3.237 2.766 11.639 9.169 22.878 11.979 14.547 3.636 76.559 5.973 87.103 6.05l1.374.004c10.333 0 42.045-.586 72.713-1.154 30.334-.561 58.986-1.091 68.234-1.091 28.541 0 68.456 5.232 92.846 12.171 42.025 11.956 65.916 30.545 66.152 30.731.457.36.567 1.003.258 1.494-.206.334-.566.534-.958.534z"/>
  <path fill="#F26522" d="M170.60696 116.851c-.501 0-.937-.323-1.084-.804-12.905-42.316-79.404-45.605-99.478-45.605-8.437 0-13.528.502-15.326.718-13.512 1.621-29.062 10.178-28.418 28.957.021.586-.402 1.086-.984 1.163-.025.003-.125.011-.149.011-.529 0-.983-.36-1.104-.876-2.356-10.035 1.611-18.754 5.111-26.447 3.668-8.062 6.318-13.885.44-18.104-.376-.27-.549-.735-.441-1.185.108-.45.473-.786.93-.857 2.966-.456 5.689-.677 8.326-.677 5.364 0 10.011.916 15.894 2.076 9.451 1.863 22.392 4.413 47.498 5.061 21.516.556 47.139 4.665 65.848 7.665 5.043.808 9.357 1.5 12.965 2.022 14.199 2.057 26.565 2.833 45.285 4.008 10.494.659 22.377 1.405 37.78 2.56 16.315 1.224 36.44 1.844 59.818 1.844 41.16 0 78.707-1.951 79.075-1.971h.003c.588 0 1.04.359 1.161.873.125.536-.149 1.082-.654 1.3-25.514 11.022-56.444 16.157-97.34 16.157-17.299 0-33.862-.864-49.88-1.699-13.487-.703-26.173-1.363-37.305-1.363-22.82 0-35.829 2.969-42.181 9.628-3.421 3.586-4.944 8.282-4.657 14.357.026.569-.377 1.072-.939 1.17-.032.006-.162.018-.194.018z"/>
  <path fill="#F26522" d="M79.24396 150.028c-.25 0-.495-.085-.692-.237-16.363-12.563-20.765-37.639-10.167-57.354-4.104-1.409-7.944-2.124-11.42-2.124-11.676 0-19.978 8.233-24.006 23.808-.117.454-.509.793-.975.844-.02.002-.102.008-.123.008-.427 0-.814-.237-1.01-.618-2.273-4.463-2.337-10.534-.174-16.656 2.563-7.259 7.837-13.268 14.108-16.073 6.34-2.836 16.389-4.398 28.294-4.398 12.727 0 26.157 1.729 37.815 4.867.515.139.859.608.838 1.141-.022.535-.405.974-.931 1.069-.211.039-21.279 4.115-30.201 23.345-6.641 14.317-6.811 31.02-.414 40.616.309.464.238 1.076-.169 1.457-.209.196-.485.305-.773.305z"/>
  <path fill="#FFDE17" d="M123.63496 170.46c-22.382 0-40.591-18.21-40.591-40.592 0-1.823.133-3.709.395-5.603.077-.559.559-.98 1.123-.98.625.023 1.094.479 1.132 1.062.139 2.166.493 4.326 1.051 6.42 3.86 14.486 17.013 24.604 31.986 24.604 2.871 0 5.747-.378 8.548-1.124 17.646-4.704 28.177-22.888 23.476-40.536-2.381-8.931-8.185-16.263-16.344-20.647-.514-.276-.733-.892-.511-1.432.175-.426.587-.701 1.048-.701.111 0 .222.017.329.05 17.043 5.095 28.949 21.087 28.949 38.889 0 22.38-18.209 40.59-40.591 40.59z"/>
  <path fill="#FFDE17" d="M63.50896 137.284c-.267 0-.526-.096-.731-.268-.167-.141-16.88-14.212-26.646-20.34-.333-.208-.531-.567-.531-.961 0-8.01 9.506-23.4 22.51-23.4 1.59 0 3.198.235 4.778.698.32.094.581.321.716.624.136.306.132.652-.011.952-9.003 18.831.846 40.867.946 41.088.22.478.075 1.057-.346 1.375-.196.149-.439.232-.685.232z"/>
  <path fill="#FFF" d="M31.86096 113.838c.06-.229.125-.473.19-.714-.14.076-.276.151-.416.228.076.162.146.328.226.486z"/>
  <path fill="#FFF" d="M324.78596 167.416c.088-.43.181-1.064.278-1.904 1.172-.303 2.189-.51 3.055-.623.863-.111 1.706-.168 2.526-.168.879 0 1.701.08 2.468.242.767.16 1.404.422 1.912.783s.845.776 1.011 1.245.249.972.249 1.509c0 .674-.051 1.805-.153 3.391-.102 1.588-.179 3.055-.232 4.402s-.08 2.549-.08 3.604c-.528-.02-.958-.029-1.29-.029-.313 0-.758.01-1.335.029l.312-3.999.223-4.731c-.343.264-.6.449-.771.557s-.363.208-.579.301c-.215.093-.451.181-.711.264-.259.083-.762.227-1.51.432-.747.205-1.277.361-1.59.469-.675.215-1.207.43-1.599.645-.391.215-.718.449-.982.703-.264.254-.449.508-.557.762-.127.313-.19.64-.19.981 0 .527.156.986.469 1.377s.705.662 1.18.813c.473.151 1.042.227 1.706.227.41 0 .84-.028 1.289-.085.449-.058 1.05-.205 1.802-.442-.137.378-.293.959-.469 1.743-.713.137-1.294.222-1.743.257-.449.033-.874.051-1.274.051-1.338 0-2.383-.156-3.135-.469s-1.313-.788-1.685-1.428-.557-1.336-.557-2.088c0-.439.065-.845.198-1.216.131-.371.31-.708.534-1.011s.545-.605.96-.908.85-.552 1.304-.747.984-.388 1.59-.579c.605-.189 1.577-.446 2.915-.769.43-.098.796-.198 1.099-.3.303-.104.571-.203.806-.301s.439-.213.615-.344c.176-.133.338-.293.484-.484.146-.189.254-.383.322-.578.067-.195.103-.391.103-.586 0-.479-.156-.889-.47-1.23-.313-.342-.72-.581-1.223-.718s-1.097-.205-1.78-.205c-.635 0-1.287.052-1.956.153-.669.104-1.245.226-1.729.367s-1.087.352-1.81.635z"/>
  <path fill="#FFF" d="M353.71896 179.896c-.479-.02-.89-.029-1.231-.029-.392 0-.797.01-1.217.029l.073-2.827c-.234.439-.438.779-.608 1.019s-.384.474-.637.703c-.255.229-.516.422-.784.578s-.584.296-.944.418c-.361.121-.784.224-1.268.307s-.998.125-1.545.125c-1.191 0-2.21-.181-3.055-.542s-1.484-.874-1.919-1.538-.651-1.572-.651-2.725c0-.176.01-.474.029-.894.019-.42.048-.967.087-1.641l.246-4.878.043-1.567c.01-.361.015-.82.015-1.377l1.351.015c.273 0 .694-.005 1.262-.015-.139 1.709-.27 3.579-.393 5.61-.124 2.031-.186 3.33-.186 3.896 0 .859.139 1.545.417 2.059.278.512.743.908 1.393 1.186.65.279 1.386.418 2.206.418.723 0 1.417-.127 2.081-.381.567-.225 1.046-.527 1.437-.908.42-.42.771-.962 1.056-1.626.205-.488.361-1.118.469-1.89.068-.557.137-1.558.205-3.003.078-1.758.131-3.545.16-5.361l1.364.015c.293 0 .703-.005 1.231-.015-.137 1.758-.297 4.429-.482 8.013-.108 1.973-.176 4.248-.205 6.826z"/>
  <path fill="#FFF" d="M365.14296 177.963c-.107.479-.225 1.113-.352 1.904-.664.156-1.191.254-1.582.293s-.762.059-1.113.059c-.869 0-1.57-.109-2.102-.33-.533-.219-.94-.57-1.224-1.055-.283-.482-.425-1.14-.425-1.97 0-.107.005-.298.015-.571s.06-1.226.149-2.856l.357-6.563h-1.957c.039-.41.073-.996.103-1.758h1.997c.049-.547.099-1.479.147-2.798.916-.176 1.69-.342 2.323-.498-.067 1.445-.106 2.544-.116 3.296h4.071c-.049.615-.078 1.201-.088 1.758h-4.056l-.391 8.247-.015.63c0 .713.08 1.248.241 1.604s.402.612.724.769c.322.156.658.234 1.01.234.243 0 .507-.02.79-.059.285-.038.782-.151 1.494-.336z"/>
  <path fill="#FFF" d="M374.67896 164.721c1.025 0 2.002.146 2.93.439s1.73.757 2.409 1.392 1.194 1.436 1.546 2.402.527 1.987.527 3.062c0 1.162-.188 2.275-.563 3.34-.377 1.064-.904 1.968-1.582 2.71-.68.742-1.51 1.287-2.49 1.634-.982.346-2.034.52-3.157.52-1.045 0-2.031-.156-2.959-.469s-1.731-.801-2.409-1.465c-.68-.664-1.194-1.477-1.546-2.439-.352-.961-.527-1.97-.527-3.024 0-1.592.322-3.024.967-4.3.645-1.273 1.592-2.227 2.842-2.855 1.248-.633 2.586-.947 4.012-.947zm-.066 1.86c-.994 0-1.908.249-2.742.747s-1.451 1.248-1.851 2.248c-.399 1.002-.6 2.093-.6 3.274 0 1.035.166 1.966.497 2.79.332.826.878 1.492 1.639 2s1.677.762 2.75.762c.731 0 1.424-.125 2.077-.373.653-.25 1.224-.662 1.711-1.238s.849-1.281 1.082-2.117c.234-.834.352-1.711.352-2.629 0-.859-.117-1.665-.352-2.417-.233-.752-.592-1.354-1.074-1.81-.483-.453-1.029-.773-1.639-.959s-1.226-.278-1.85-.278z"/>
  <path fill="#FFF" d="M395.87496 177.67c-.02.156-.071.447-.154.871-.083.426-.153.843-.212 1.253-.713.166-1.399.278-2.058.337-.66.059-1.238.088-1.736.088-1.055 0-2.029-.142-2.922-.425-.895-.283-1.673-.749-2.337-1.399-.664-.648-1.152-1.454-1.465-2.416s-.469-1.976-.469-3.04c0-1.436.254-2.798.762-4.087s1.309-2.3 2.402-3.032 2.583-1.099 4.468-1.099c1.387 0 2.739.186 4.058.557.059.83.112 1.514.161 2.051-.928-.293-1.685-.49-2.271-.594-.586-.102-1.128-.153-1.626-.153-.859 0-1.629.156-2.307.469-.68.313-1.258.757-1.736 1.333s-.823 1.26-1.033 2.051-.314 1.597-.314 2.417c0 1.104.171 2.07.513 2.9s.939 1.472 1.794 1.927c.854.453 1.814.681 2.879.681 1.035-.002 2.236-.231 3.603-.69z"/>
  <path fill="#FFF" d="M400.06496 167.416c.088-.43.181-1.064.278-1.904 1.172-.303 2.189-.51 3.055-.623.863-.111 1.706-.168 2.526-.168.879 0 1.701.08 2.468.242.767.16 1.404.422 1.912.783s.845.776 1.011 1.245.249.972.249 1.509c0 .674-.051 1.805-.153 3.391-.102 1.588-.179 3.055-.232 4.402s-.08 2.549-.08 3.604c-.528-.02-.958-.029-1.29-.029-.313 0-.758.01-1.335.029l.312-3.999.223-4.731c-.343.264-.6.449-.771.557s-.363.208-.579.301c-.215.093-.451.181-.711.264-.259.083-.762.227-1.51.432-.747.205-1.277.361-1.59.469-.675.215-1.207.43-1.599.645-.391.215-.718.449-.982.703-.264.254-.449.508-.557.762-.127.313-.19.64-.19.981 0 .527.156.986.469 1.377s.705.662 1.18.813c.473.151 1.042.227 1.706.227.41 0 .84-.028 1.289-.085.449-.058 1.05-.205 1.802-.442-.137.378-.293.959-.469 1.743-.713.137-1.294.222-1.743.257-.449.033-.874.051-1.274.051-1.338 0-2.383-.156-3.135-.469s-1.313-.788-1.685-1.428-.557-1.336-.557-2.088c0-.439.065-.845.198-1.216.131-.371.31-.708.534-1.011s.545-.605.96-.908.85-.552 1.304-.747.984-.388 1.59-.579c.605-.189 1.577-.446 2.915-.769.43-.098.796-.198 1.099-.3.303-.104.571-.203.806-.301s.439-.213.615-.344c.176-.133.338-.293.484-.484.146-.189.254-.383.322-.578.067-.195.103-.391.103-.586 0-.479-.156-.889-.47-1.23-.313-.342-.72-.581-1.223-.718s-1.097-.205-1.78-.205c-.635 0-1.287.052-1.956.153-.669.104-1.245.226-1.729.367s-1.088.352-1.81.635z"/>
  <path fill="#FFF" d="M415.02096 179.896c.352-5.635.526-10.132.526-13.491l-.015-1.348c.498.01.909.015 1.231.015.371 0 .786-.005 1.245-.015l-.117 2.432c.361-.605.682-1.062.96-1.37.278-.307.593-.561.944-.762.352-.199.75-.355 1.194-.469.444-.111.905-.168 1.384-.168.41 0 .815.049 1.216.146.01.645.044 1.367.103 2.168-.605-.166-1.147-.249-1.626-.249-.576 0-1.094.095-1.552.286-.459.189-.872.479-1.238.863-.366.387-.666.848-.9 1.385-.195.43-.344.986-.446 1.67s-.184 1.929-.242 3.735c-.038 1.318-.058 2.715-.058 4.189v.981c-.528-.02-.953-.029-1.275-.029-.294.002-.739.012-1.334.031z"/>
  <path fill="#FFF" d="M437.69696 177.567c-.117.537-.234 1.221-.352 2.051-.938.234-1.75.393-2.439.476-.688.083-1.374.125-2.058.125-1.221 0-2.317-.146-3.288-.439-.973-.293-1.805-.803-2.498-1.531-.693-.727-1.191-1.56-1.494-2.497s-.454-1.929-.454-2.974c0-1.455.278-2.805.835-4.051.557-1.244 1.394-2.224 2.512-2.937s2.537-1.069 4.256-1.069c.889 0 1.738.13 2.549.389s1.484.651 2.021 1.179.952 1.179 1.245 1.956c.293.775.439 1.623.439 2.541 0 .352-.029.693-.088 1.025h-11.177c-.039.537-.059.947-.059 1.23 0 1.025.215 1.971.645 2.834.43.865 1.064 1.52 1.904 1.963.84.445 1.807.667 2.9.667 1.261 0 2.794-.313 4.601-.938zm-9.874-6.972h8.73c-.01-.615-.049-1.094-.117-1.436s-.195-.696-.381-1.062c-.186-.367-.438-.684-.754-.953-.318-.268-.699-.473-1.143-.615-.445-.141-.926-.212-1.443-.212-.557 0-1.087.078-1.59.234s-.947.371-1.332.645c-.387.273-.714.593-.982.96-.269.365-.469.72-.6 1.062-.132.342-.261.801-.388 1.377z"/>
  <path fill="#FFF" d="M448.28696 179.618l-.088-1.076c0-.118-.039-.492-.117-1.121 1.504.654 2.891.981 4.16.981.664 0 1.226-.088 1.685-.263s.803-.436 1.032-.781.345-.703.345-1.073c0-.204-.032-.408-.095-.612-.064-.205-.159-.401-.286-.592-.127-.189-.315-.398-.563-.628-.25-.229-.768-.66-1.553-1.295-.787-.635-1.383-1.13-1.787-1.486-.406-.356-.753-.723-1.041-1.1-.288-.375-.5-.754-.637-1.135s-.205-.767-.205-1.157c0-.625.197-1.23.594-1.816.395-.586.967-1.022 1.713-1.312.748-.287 1.624-.432 2.63-.432 1.123 0 2.358.132 3.706.396.039.762.088 1.46.146 2.095-1.094-.449-2.173-.674-3.237-.674-.576 0-1.111.076-1.604.227-.493.152-.854.379-1.084.682s-.344.635-.344.996c0 .234.039.459.117.674s.217.447.418.695c.199.25.441.496.725.74s.847.703 1.691 1.377 1.424 1.172 1.736 1.494.581.654.806.996.388.682.491 1.018c.102.338.153.682.153 1.033 0 .684-.203 1.318-.608 1.904s-1.008 1.04-1.809 1.362-1.699.483-2.695.483c-.42 0-.913-.027-1.479-.08-.566-.055-1.048-.117-1.442-.191-.397-.072-.888-.182-1.474-.329z"/>
  <path fill="#FFF" d="M468.26796 164.721c1.025 0 2.002.146 2.93.439s1.73.757 2.409 1.392 1.194 1.436 1.546 2.402.527 1.987.527 3.062c0 1.162-.188 2.275-.563 3.34-.377 1.064-.904 1.968-1.582 2.71-.68.742-1.51 1.287-2.49 1.634-.982.346-2.034.52-3.157.52-1.045 0-2.031-.156-2.959-.469s-1.731-.801-2.409-1.465c-.68-.664-1.194-1.477-1.546-2.439-.352-.961-.527-1.97-.527-3.024 0-1.592.322-3.024.967-4.3.645-1.273 1.592-2.227 2.842-2.855 1.248-.633 2.586-.947 4.012-.947zm-.067 1.86c-.994 0-1.908.249-2.742.747s-1.451 1.248-1.851 2.248c-.399 1.002-.6 2.093-.6 3.274 0 1.035.166 1.966.497 2.79.332.826.878 1.492 1.639 2s1.677.762 2.75.762c.731 0 1.424-.125 2.077-.373.653-.25 1.224-.662 1.711-1.238s.849-1.281 1.082-2.117c.234-.834.352-1.711.352-2.629 0-.859-.117-1.665-.352-2.417-.233-.752-.592-1.354-1.074-1.81-.483-.453-1.029-.773-1.639-.959s-1.226-.278-1.85-.278z"/>
  <path fill="#FFF" d="M478.56596 179.896c.194-3.008.385-6.572.569-10.693.127-2.998.22-6.099.278-9.302l1.363.015c.283 0 .719-.005 1.305-.015l-.453 8.599-.321 8.701-.058 2.695c-.577-.02-1.007-.029-1.291-.029-.117 0-.581.01-1.392.029z"/>
  <path fill="#FFF" d="M499.20696 179.896c-.479-.02-.89-.029-1.231-.029-.392 0-.797.01-1.217.029l.073-2.827c-.234.439-.438.779-.608 1.019s-.384.474-.637.703c-.255.229-.516.422-.784.578s-.584.296-.944.418c-.361.121-.784.224-1.268.307s-.998.125-1.545.125c-1.191 0-2.21-.181-3.055-.542s-1.484-.874-1.919-1.538-.651-1.572-.651-2.725c0-.176.01-.474.029-.894.019-.42.048-.967.087-1.641l.246-4.878.043-1.567c.01-.361.015-.82.015-1.377l1.351.015c.273 0 .694-.005 1.262-.015-.139 1.709-.27 3.579-.393 5.61-.124 2.031-.186 3.33-.186 3.896 0 .859.139 1.545.417 2.059.278.512.743.908 1.393 1.186.65.279 1.386.418 2.206.418.723 0 1.417-.127 2.081-.381.567-.225 1.046-.527 1.437-.908.42-.42.771-.962 1.056-1.626.205-.488.361-1.118.469-1.89.068-.557.137-1.558.205-3.003.078-1.758.131-3.545.16-5.361l1.364.015c.293 0 .703-.005 1.231-.015-.137 1.758-.297 4.429-.482 8.013-.108 1.973-.175 4.248-.205 6.826z"/>
  <path fill="#FFF" d="M510.63096 177.963c-.107.479-.225 1.113-.352 1.904-.664.156-1.191.254-1.582.293s-.762.059-1.113.059c-.869 0-1.57-.109-2.102-.33-.533-.219-.94-.57-1.224-1.055-.283-.482-.425-1.14-.425-1.97 0-.107.005-.298.015-.571s.06-1.226.149-2.856l.357-6.563h-1.957c.039-.41.073-.996.103-1.758h1.997c.049-.547.099-1.479.147-2.798.916-.176 1.69-.342 2.323-.498-.067 1.445-.106 2.544-.116 3.296h4.071c-.049.615-.078 1.201-.088 1.758h-4.056l-.391 8.247-.015.63c0 .713.08 1.248.241 1.604s.402.612.724.769c.322.156.658.234 1.01.234.243 0 .507-.02.79-.059.285-.038.782-.151 1.494-.336z"/>
  <path fill="#FFF" d="M512.85796 179.896l.254-3.691.284-6.299.119-4.849 1.349.015 1.319-.015c-.109 1.523-.209 3.118-.299 4.782-.09 1.666-.162 3.484-.217 5.457s-.082 3.506-.082 4.6c-.616-.02-1.056-.029-1.32-.029-.244 0-.713.01-1.407.029zm.673-18.032c.029-.918.044-1.611.044-2.08.537.02 1.011.029 1.421.029.518 0 .986-.01 1.406-.029-.02.303-.049.996-.088 2.08-.527-.01-.981-.015-1.362-.015s-.854.005-1.421.015z"/>
  <path fill="#FFF" d="M526.91996 164.721c1.025 0 2.002.146 2.93.439s1.73.757 2.409 1.392 1.194 1.436 1.546 2.402.527 1.987.527 3.062c0 1.162-.188 2.275-.563 3.34-.377 1.064-.904 1.968-1.582 2.71-.68.742-1.51 1.287-2.49 1.634-.982.346-2.034.52-3.157.52-1.045 0-2.031-.156-2.959-.469s-1.731-.801-2.409-1.465c-.68-.664-1.194-1.477-1.546-2.439-.352-.961-.527-1.97-.527-3.024 0-1.592.322-3.024.967-4.3.645-1.273 1.592-2.227 2.842-2.855 1.248-.633 2.586-.947 4.012-.947zm-.066 1.86c-.994 0-1.908.249-2.742.747s-1.451 1.248-1.851 2.248c-.399 1.002-.6 2.093-.6 3.274 0 1.035.166 1.966.497 2.79.332.826.878 1.492 1.639 2s1.677.762 2.75.762c.731 0 1.424-.125 2.077-.373.653-.25 1.224-.662 1.711-1.238s.849-1.281 1.082-2.117c.234-.834.352-1.711.352-2.629 0-.859-.117-1.665-.352-2.417-.233-.752-.592-1.354-1.074-1.81-.483-.453-1.029-.773-1.639-.959s-1.226-.278-1.85-.278z"/>
  <path fill="#FFF" d="M537.11496 179.896c.467-6.123.71-11.069.729-14.839l1.32.015c.322 0 .747-.005 1.275-.015l-.193 2.93c.244-.41.439-.726.586-.944.146-.221.342-.452.586-.696s.532-.471.864-.681.723-.386 1.173-.527c.449-.142.905-.247 1.369-.315s.926-.103 1.385-.103c.841 0 1.651.103 2.433.308s1.424.54 1.927 1.003c.503.465.84.984 1.011 1.561s.257 1.196.257 1.86c0 .127-.005.371-.015.732s-.029.835-.058 1.421l-.291 6.138c-.02.586-.033 1.304-.043 2.153-.44-.02-.856-.029-1.247-.029-.479 0-.929.01-1.35.029.099-1.182.172-2.319.222-3.413l.192-3.413c.059-1.172.089-2.056.089-2.651 0-.859-.147-1.546-.44-2.058-.293-.514-.763-.908-1.407-1.188-.646-.277-1.369-.417-2.171-.417-1.135 0-2.107.269-2.919.806-.743.498-1.319 1.206-1.73 2.124-.283.654-.483 1.621-.601 2.9-.149 1.533-.254 3.97-.313 7.31-.545-.02-.968-.029-1.269-.029-.301-.001-.758.009-1.371.028z"/>
  <path fill="#FFDE17" d="M223.72496 154.617c-.625 0-1.134-.51-1.134-1.135v-7.894h-19.399v7.894c0 .625-.509 1.135-1.134 1.135h-8.125c-.625 0-1.134-.51-1.134-1.135v-25.01c0-3.243 1.121-6.008 3.332-8.22 2.294-2.31 5.019-3.481 8.098-3.481h27.619c.625 0 1.134.51 1.134 1.135v35.576c0 .625-.509 1.135-1.134 1.135h-8.123zm-1.133-19.423v-8.051h-18.361c-.352 0-.598.071-.753.22-.254.256-.285.45-.285.573v7.258h19.399z"/>
  <path fill="#FFDE17" d="M236.73096 154.617c-.625 0-1.134-.51-1.134-1.135v-35.576c0-.625.509-1.135 1.134-1.135h8.125c.625 0 1.134.51 1.134 1.135v26.341h20.068c.351 0 .597-.072.753-.222.254-.255.285-.448.285-.571v-25.548c0-.625.509-1.135 1.134-1.135h8.125c.625 0 1.134.51 1.134 1.135v25.012c0 3.241-1.122 6.007-3.333 8.219-2.293 2.309-5.018 3.48-8.097 3.48h-29.328z"/>
  <path fill="#FFDE17" d="M296.48496 154.617c-.625 0-1.134-.51-1.134-1.135v-26.314h-14.117c-.625 0-1.134-.51-1.134-1.135v-8.127c0-.625.509-1.135 1.134-1.135h38.112c.625 0 1.134.51 1.134 1.135v8.127c0 .625-.509 1.135-1.134 1.135h-13.603v26.314c0 .625-.509 1.135-1.134 1.135h-8.124z"/>
  <path fill="#FFDE17" d="M334.74996 154.726c-3.098 0-5.839-1.18-8.146-3.504-2.221-2.221-3.348-5-3.348-8.26v-14.533c0-3.262 1.128-6.043 3.351-8.266 2.306-2.321 5.045-3.5 8.143-3.5h18.061c3.096 0 5.837 1.179 8.145 3.504 2.221 2.221 3.348 5.001 3.348 8.262v14.533c0 3.259-1.127 6.039-3.351 8.263-2.304 2.322-5.044 3.501-8.142 3.501h-18.061zm18.061-10.42c.465 0 .669-.138.782-.241.169-.18.27-.378.27-.563V127.89c0-.069 0-.28-.32-.612-.133-.119-.388-.192-.731-.192h-2.271c-.077.017-.154.025-.231.025h-13.056c-.078 0-.158-.009-.237-.025h-2.265c-.466 0-.669.137-.781.239-.172.181-.271.379-.271.565v15.612c0 .069 0 .28.322.615.17.152.493.189.73.189h2.273c.075-.016.152-.024.229-.024h13.056c.079 0 .157.009.233.024h2.268z"/>
  <path fill="#FFDE17" d="M456.54296 154.617c-.625 0-1.135-.51-1.135-1.135v-35.576c0-.625.51-1.135 1.135-1.135h8.122c.625 0 1.135.51 1.135 1.135v35.576c0 .625-.51 1.135-1.135 1.135h-8.122z"/>
  <path fill="#FFDE17" d="M486.11296 154.617c-.425 0-.811-.234-1.007-.612l-18.396-35.577c-.18-.35-.165-.774.039-1.11.204-.337.575-.546.969-.546h9.148c.427 0 .813.236 1.008.615l12.728 24.555 12.705-24.557c.196-.378.582-.613 1.008-.613h9.15c.394 0 .765.209.969.546.204.336.219.761.039 1.109l-18.397 35.577c-.197.379-.583.613-1.008.613h-8.955z"/>
  <path fill="#FFDE17" d="M526.81196 154.617c-3.065 0-5.79-1.172-8.098-3.482-2.212-2.211-3.334-4.976-3.334-8.217v-25.012c0-.625.51-1.135 1.135-1.135h36.087c.625 0 1.135.51 1.135 1.135v8.127c0 .625-.51 1.135-1.135 1.135h-26.828v3.318h26.828c.625 0 1.135.51 1.135 1.135v8.148c0 .625-.51 1.135-1.135 1.135h-26.828v2.55c0 .123.031.317.304.592.134.133.382.201.734.201h25.79c.625 0 1.135.51 1.135 1.135v8.101c0 .625-.51 1.135-1.135 1.135h-25.79v-.001z"/>
  <path fill="#FFDE17" d="M443.09896 154.617c-.419 0-.802-.23-1-.601l-5.635-10.573h-15.191v10.039c0 .625-.51 1.135-1.135 1.135h-8.126c-.625 0-1.135-.51-1.135-1.135v-19.325c0-.625.51-1.135 1.135-1.135h29.524c.241 0 .443-.09.654-.293.141-.14.212-.37.212-.696v-4.865h-30.149c-.345 0-.667-.155-.884-.425-.216-.27-.298-.617-.224-.953.453-2.079 1.499-3.965 3.109-5.603 2.212-2.266 4.938-3.416 8.104-3.416h29.303c.625 0 1.135.51 1.135 1.135v14.127c0 3.16-1.104 5.876-3.281 8.071-.82.835-1.73 1.524-2.71 2.053l5.407 10.817c.175.35.156.773-.05 1.104-.205.332-.574.538-.964.538h-8.099v.001z"/>
  <path fill="#FFDE17" d="M369.25596 154.394c-.625 0-1.133-.51-1.133-1.135V134.47c0-.625.508-1.135 1.133-1.135h8.09c.625 0 1.133.51 1.133 1.135v9.107h10.362c5.578 0 8.649-2.839 8.649-7.995 0-4.408-3.88-7.994-8.649-7.994h-19.585c-.625 0-1.133-.51-1.133-1.135v-8.547c0-.625.508-1.135 1.133-1.135h20.309c6.841 0 11.999 2.509 15.331 7.457 1.121 1.664 2.044 3.695 2.821 6.209.893 2.893.894 7.313.002 10.282-.735 2.455-1.658 4.488-2.823 6.217-3.333 4.948-8.491 7.457-15.331 7.457h-20.309v.001z"/>
</svg>